<?xml version="1.0" encoding="UTF-8"?>
<svg id="Layer_2" data-name="Layer 2" xmlns="http://www.w3.org/2000/svg" viewBox="0 0 58.05 46.34">
  <g id="Layer_1-2" data-name="Layer 1">
    <path d="m16.54.47C9.71,1.28,3.14,6.35,1.71,13.31c-.74,3.62.66,7,4.19,8.38,3.15,1.23,6.71.59,9.64-.93,3.52-1.82,6.15-5,7.45-8.72l-2.95-.4c-.49,4.6-.87,9.21-1.15,13.82-.24,4.02-.08,8.28-1.49,12.12-1.11,3.04-4.09,6.27-7.64,5.74s-5.41-4.07-6.96-6.74c-.97-1.67-3.57-.16-2.59,1.51,1.54,2.64,3.28,5.4,5.96,7.03s6.11,1.56,8.85-.06c6.66-3.94,6.45-12.35,6.84-19.11.27-4.78.67-9.56,1.17-14.32.19-1.77-2.42-1.9-2.95-.4-1.12,3.21-3.61,5.88-6.73,7.24-2.44,1.06-6.45,1.57-8.25-.93-2.04-2.82.72-7.35,2.68-9.48,2.27-2.47,5.39-4.21,8.75-4.61,1.89-.22,1.92-3.23,0-3h0Z"/>
    <path d="m29.57,12.78c-.36,4.7-.71,9.4-1.07,14.1-.06.81.73,1.5,1.5,1.5.86,0,1.44-.69,1.5-1.5.36-4.7.71-9.4,1.07-14.1.06-.81-.73-1.5-1.5-1.5-.86,0-1.44.69-1.5,1.5h0Z"/>
    <path d="m37.85,14.36c.68,6.23.37,12.62-1.22,18.69-.65,2.47-1.82,4.77-4.44,5.55-2.47.74-5.09-.31-6.48-2.46-1.04-1.62-3.64-.11-2.59,1.51,1.7,2.63,4.66,4.36,7.83,4.18s6.09-2.1,7.48-4.98c1.57-3.26,2.05-7.15,2.44-10.71.42-3.92.4-7.87-.03-11.79-.21-1.9-3.21-1.92-3,0h0Z"/>
    <path d="m39.73,10.4c1.93,0,1.93-3,0-3s-1.93,3,0,3h0Z"/>
    <path d="m31.1,9.25c1.93,0,1.93-3,0-3s-1.93,3,0,3h0Z"/>
    <path d="m56.13.02c-3.35-.2-6.67,1.35-8.69,4.03-1.03,1.37-1.77,3.08-1.17,4.79s2.26,2.73,3.59,3.73c2.24,1.68,6.41,4.44,5.01,7.84s-5.46,2.75-7.45.51c-1.28-1.45-3.4.68-2.12,2.12,2.29,2.58,6.15,3.59,9.26,1.91s4.33-5.57,2.83-8.84c-.78-1.71-2.1-3.09-3.55-4.26s-3.35-2.12-4.47-3.58c-1.04-1.36,1.03-3.26,2.09-3.98,1.4-.95,2.99-1.36,4.67-1.26,1.93.11,1.92-2.89,0-3h0Z"/>
  </g>
</svg>